<?xml version="1.0" encoding="utf-8"?>
<!-- Generator: Adobe Illustrator 16.0.0, SVG Export Plug-In . SVG Version: 6.00 Build 0)  -->
<!DOCTYPE svg PUBLIC "-//W3C//DTD SVG 1.1//EN" "http://www.w3.org/Graphics/SVG/1.1/DTD/svg11.dtd">
<svg version="1.1" id="圖層_1" xmlns="http://www.w3.org/2000/svg" xmlns:xlink="http://www.w3.org/1999/xlink" x="0px" y="0px"
	 width="577.236px" height="235.131px" viewBox="5.201 7.962 577.236 235.131" enable-background="new 5.201 7.962 577.236 235.131"
	 xml:space="preserve">
<g>
	<g>
		<polygon fill="#60A7E5" points="5.201,77.794 5.201,62.94 76.746,45.054 76.746,59.905 		"/>
		<polygon fill="#60A7E5" points="40.978,35.573 40.978,50.427 76.719,41.481 76.719,26.632 		"/>
		<polygon fill="#60A7E5" points="40.978,16.895 40.978,31.744 76.719,22.816 76.719,7.962 		"/>
		<polygon fill="#60A7E5" points="112.487,54.943 112.487,69.791 40.942,87.685 40.942,72.832 		"/>
		<polygon fill="#60A7E5" points="76.719,97.166 76.719,82.31 40.978,91.251 40.978,106.111 		"/>
		<polygon fill="#60A7E5" points="76.719,115.84 76.719,100.986 40.978,109.925 40.978,124.777 		"/>
	</g>
	<g>
		<g>
			<path fill="#3D44AC" d="M142.03,105.757c7.922-15.529,11.409-24.19,17.009-40.243l5.492,3.17
				c-5.283,15.104-8.77,23.764-16.903,40.56L142.03,105.757z M160.621,59.808c-6.55-5.702-11.511-9.929-17.953-14.681l3.906-4.86
				c7.074,5.177,11.406,8.872,18.061,14.155L160.621,59.808z M160.517,34.775c-6.761-5.598-10.037-7.922-16.586-12.676l3.593-4.964
				c7.074,4.754,10.142,6.972,17.007,12.359L160.517,34.775z M234.35,62.874c-6.442-3.276-13.097-7.818-17.321-11.938v1.374h-34.858
				v-1.69c-4.541,4.647-9.297,8.874-15.635,13.205l-3.591-5.388c6.338-4.542,11.621-8.872,15.952-13.943
				c-3.7-3.908-7.187-7.605-11.83-12.148l4.962-4.119l10.773,10.879c3.274-4.647,5.598-9.508,6.974-14.049h-23.241v-6.338h31.794
				c-2.428,10.246-6.761,19.756-12.253,27.254h26.302c-6.444-7.817-10.563-15.316-14.787-31.269l6.548-1.267
				c1.159,4.647,2.218,9.085,3.802,12.782c4.649-3.063,8.56-6.234,13.52-10.881l4.86,4.227c-5.811,5.177-10.244,8.768-15.631,12.253
				c1.796,3.063,3.589,5.809,5.598,8.345c4.541-3.274,8.241-6.444,12.78-10.669l4.964,4.121c-4.964,4.647-9.084,7.922-13.626,11.196
				c4.542,4.543,9.929,8.236,18.063,12.359L234.35,62.874z M163.576,107.128v-6.442h22.5c-2.109-3.908-4.225-8.239-7.078-12.991
				l5.811-3.487c3.276,6.019,6.023,11.09,8.66,16.478h12.572c2.537-5.388,4.65-10.14,7.288-16.478l5.917,3.062
				c-2.113,5.073-4.118,9.508-5.917,13.416h23.768v6.442H163.576z M175.41,83.575V59.28h46.793v24.295H175.41z M215.651,65.514
				h-33.692v11.934h33.692V65.514z"/>
		</g>
	</g>
	<g>
		<g>
			<path fill="#3D44AC" d="M277.265,60.758c-7.924-6.231-12.04-9.504-19.754-14.681l3.695-4.754
				c8.135,5.281,12.149,8.345,20.283,14.472L277.265,60.758z M257.724,105.228c9.612-14.789,13.307-21.758,20.806-35.385
				l5.496,3.274c-6.761,12.888-11.198,20.491-20.811,36.125L257.724,105.228z M281.596,36.148
				c-7.818-5.915-12.993-9.822-20.281-14.893l3.693-4.752c7.609,5.068,12.997,9.081,20.6,14.681L281.596,36.148z M280.54,52.838
				v-5.704h32.848v-7.182h-23.13v-5.707h23.13v-6.759h-27.567v-5.702h27.567v-8.451h6.132v8.451h29.991v5.702H319.52v6.759h23.13
				v5.707h-23.13v7.182h34.108v5.704H280.54z M321.841,107.977l-0.533-6.34c5.919,0.95,9.3,1.269,12.255,1.269
				c2.534,0,3.276-0.636,3.276-2.747v-8.873h-39.72v19.12h-6.227V58.753h52.074v42.146c0,6.969-4.118,7.922-9.508,7.922
				C330.5,108.821,326.802,108.717,321.841,107.977z M336.839,64.668h-39.72v7.605h39.72V64.668z M336.839,77.977h-39.72v7.605
				h39.72V77.977z"/>
		</g>
	</g>
	<g>
		<g>
			<path fill="#3D44AC" d="M405.816,41.957c4.118,2.854,8.342,4.86,13.413,8.979l-3.909,4.225
				c-5.068-4.541-8.346-6.335-12.255-9.399c-3.91,4.437-7.078,6.759-14.474,9.614h34.016v2.109
				c5.492-1.159,11.195-2.428,15.313-4.225c-4.117-3.274-8.236-6.863-10.662-10.986h-4.65V37.31h35.492v3.378
				c-2.852,5.179-7.289,9.191-11.512,12.467c4.539,2.111,10.879,3.802,18.482,5.386l-2.432,5.073h3.068v5.596h-35.914v4.543h27.035
				v36.546h-6.229v-4.65h-61.898v4.65h-6.231V73.752h25.663v-4.543h-34.963v-5.596h47.012l-1.167-3.064h-41.825V17.453h45.844v5.386
				h-26.41l2.117,0.846c-0.742,1.582-1.268,2.849-1.802,3.697h19.968v4.646H405.6l-0.315,5.071h14.471v4.858H405.816z
				 M382.891,55.375h5.386l-3.27-4.647c7.703-2.854,10.664-3.91,14.049-8.771H385.85v-4.858h1.584l-3.063-2.745
				c3.489-3.489,6.34-7.396,8.559-11.515h-10.037L382.891,55.375L382.891,55.375z M450.601,88.646h-19.648
				c-4.543,0-7.078-1.586-7.078-5.707v-3.905h-10.138c-2.534,8.872-8.771,10.243-21.442,11.404l-1.691-5.492
				c8.236,0,14.266-0.421,17.007-5.913h-18.907v12.673h61.898V88.646L450.601,88.646z M450.601,96.885h-61.898v3.38h61.898V96.885z
				 M400.005,37.099c0.316-1.374,0.316-3.381,0.422-5.071h-6.766c-1.264,1.69-2.427,3.487-4.011,5.071H400.005z M423.873,69.209
				h-9.61v4.543h9.61V69.209z M448.701,34.668c-1.164-0.844-1.377-2.111-1.377-3.38v-8.766h-11.938
				c-0.316,7.922-3.27,10.352-12.355,13.626l-2.43-5.492c9.082-2.324,8.979-2.749,8.979-13.203h23.66v11.194
				c0,0.529,0.104,0.846,0.213,1.165c0.217,0.21,1.059,0.314,2.426,0.314c3.701,0,6.76-0.212,10.67-1.057v5.809
				c-3.691,0.74-6.859,0.953-10.67,0.953C452.501,35.832,449.859,35.619,448.701,34.668z M421.447,63.613h39.611
				c-7.605-1.694-13.309-3.699-18.697-6.761C436.445,59.914,429.58,62.027,421.447,63.613z M450.601,79.034h-20.809v3.167
				c0,0.423,0,1.478,1.158,1.478h19.648v-4.645H450.601z M433.486,42.273c2.111,3.064,5.072,5.6,8.77,7.818
				c3.484-2.324,6.336-4.965,8.555-7.818H433.486z"/>
		</g>
	</g>
	<g>
		<g>
			<path fill="#3D44AC" d="M515.91,60.549c1.584,2.428,2.752,4.965,3.701,7.605c0.732,2.111,1.051,4.225,1.051,6.655
				c0,7.919-4.752,13.73-11.93,13.73c-2.326,0-3.168,0-10.246-0.53l-1.059-6.759v29.257h-6.553V18.508h31.9l-2.531,6.234h25.352
				c-1.584-2.854-2.643-5.177-4.752-8.875l5.912-3.274c2.639,4.965,3.797,7.816,6.01,12.149h25.979v20.174h-6.449V30.973h-46.238
				V45.76h-6.344V26.219c-3.693,8.875-7.287,16.479-11.406,24.084C510.525,53.259,513.484,56.64,515.91,60.549z M497.427,80.935
				c8.139,1.161,8.98,1.161,10.771,1.161c3.703,0,5.604-2.537,5.604-7.709c0-4.121-1.691-7.922-4.119-11.728
				c-2.537-3.906-5.705-7.393-8.77-11.932c5.602-10.04,9.721-19.333,12.572-26.2h-16.059V80.935z M519.611,61.708h61.137v6.446
				h-19.645v30.314c0,3.274,0.422,3.487,2.852,3.801c2.221,0.215,4.539,0.215,6.973,0c2.955-0.314,3.59-1.265,3.906-3.378
				c0.422-2.853,0.738-6.761,1.055-13.097l6.549,2.43c-0.313,5.383-0.525,8.764-0.842,10.981c-0.738,6.234-3.275,9.191-10.563,9.51
				c-2.113,0.104-5.178,0.104-7.291,0c-8.125-0.319-9.074-3.593-9.074-10.248V68.155h-10.021
				c-1.375,18.59-9.301,31.581-27.469,42.354l-4.119-5.492c16.164-9.189,23.66-20.387,24.826-36.862h-18.273V61.708L519.611,61.708z
				 M529.224,49.564v-6.446h39.902v6.446H529.224z"/>
		</g>
	</g>
	<g>
		<g>
			<path fill="#3D44AC" d="M172.59,180.445c-1.749,0.875-5.25,1.75-9.737,1.75c-10.394,0-18.216-6.565-18.216-18.653
				c0-11.544,7.822-19.366,19.258-19.366c4.594,0,7.495,0.983,8.75,1.641l-1.146,3.883c-1.807-0.874-4.375-1.53-7.442-1.53
				c-8.639,0-14.383,5.522-14.383,15.208c0,9.023,5.194,14.823,14.164,14.823c2.899,0,5.854-0.603,7.77-1.53L172.59,180.445z"/>
		</g>
	</g>
	<g>
		<g>
			<path fill="#3D44AC" d="M190.612,144.779v15.425h17.832v-15.425h4.814v36.869h-4.814v-17.284h-17.832v17.284h-4.762v-36.869
				H190.612z"/>
		</g>
	</g>
	<g>
		<g>
			<path fill="#3D44AC" d="M220.78,223.673c0,12.69-7.709,19.42-17.122,19.42c-9.737,0-16.575-7.549-16.575-18.709
				c0-11.704,7.278-19.364,17.124-19.364C214.271,205.02,220.78,212.734,220.78,223.673z M192.171,224.275
				c0,7.875,4.269,14.935,11.759,14.935c7.551,0,11.819-6.948,11.819-15.315c0-7.332-3.833-14.99-11.763-14.99
				C196.108,208.904,192.171,216.178,192.171,224.275z"/>
		</g>
	</g>
	<g>
		<g>
			<path fill="#3D44AC" d="M234.102,236.691c2.134,1.313,5.252,2.408,8.537,2.408c4.867,0,7.714-2.57,7.714-6.291
				c0-3.449-1.974-5.416-6.949-7.332c-6.021-2.131-9.741-5.25-9.741-10.445c0-5.746,4.762-10.012,11.927-10.012
				c3.774,0,6.509,0.875,8.151,1.807l-1.311,3.882c-1.205-0.658-3.668-1.752-7.005-1.752c-5.031,0-6.949,3.012-6.949,5.526
				c0,3.447,2.247,5.145,7.334,7.111c6.236,2.407,9.408,5.418,9.408,10.832c0,5.689-4.214,10.612-12.909,10.612
				c-3.558,0-7.442-1.04-9.408-2.353L234.102,236.691z"/>
		</g>
	</g>
	<g>
		<g>
			<path fill="#3D44AC" d="M270.963,206.059c2.294-0.383,5.302-0.711,9.135-0.711c4.704,0,8.151,1.094,10.339,3.065
				c2.026,1.749,3.226,4.429,3.226,7.711c0,3.336-0.983,5.963-2.843,7.878c-2.52,2.678-6.621,4.047-11.271,4.047
				c-1.421,0-2.734-0.054-3.829-0.326v14.769h-4.758L270.963,206.059L270.963,206.059z M275.721,223.835
				c1.038,0.276,2.351,0.386,3.937,0.386c5.748,0,9.248-2.789,9.248-7.881c0-4.867-3.443-7.218-8.699-7.218
				c-2.078,0-3.664,0.163-4.485,0.384L275.721,223.835L275.721,223.835z"/>
		</g>
	</g>
	<g>
		<g>
			<path fill="#3D44AC" d="M313.837,205.622v36.869h-4.76v-36.869H313.837z"/>
		</g>
	</g>
	<g>
		<g>
			<path fill="#3D44AC" d="M337.556,209.669h-11.213v-4.048h27.299v4.048h-11.268v32.821h-4.818V209.669z"/>
		</g>
	</g>
	<g>
		<g>
			<path fill="#3D44AC" d="M370.14,230.895l-3.831,11.597h-4.927l12.529-36.869h5.744l12.58,36.869h-5.086l-3.936-11.597H370.14z
				 M382.228,227.174l-3.605-10.613c-0.824-2.406-1.375-4.593-1.916-6.729h-0.113c-0.547,2.189-1.146,4.434-1.854,6.675
				l-3.608,10.667H382.228L382.228,227.174z"/>
		</g>
	</g>
	<g>
		<g>
			<path fill="#3D44AC" d="M404.808,205.622h4.756V238.5h15.752v3.991h-20.508V205.622L404.808,205.622z"/>
		</g>
	</g>
	<g>
		<g>
			<path fill="#3D44AC" d="M151.586,205.622v15.425h17.832v-15.425h4.813v36.869h-4.813v-17.286h-17.832v17.286h-4.762v-36.869
				H151.586z"/>
		</g>
	</g>
	<g>
		<g>
			<path fill="#3D44AC" d="M413.878,144.779v15.425h17.832v-15.425h4.814v36.869h-4.814v-17.284h-17.832v17.284h-4.762v-36.869
				H413.878z"/>
		</g>
	</g>
	<g>
		<g>
			<path fill="#3D44AC" d="M248.358,164.364h-14.333v13.29h15.971v3.994h-20.733v-36.869h19.912v3.992h-15.15v11.65h14.333V164.364z
				"/>
		</g>
	</g>
	<g>
		<g>
			<path fill="#3D44AC" d="M457.855,144.779v36.869h-4.762v-36.869H457.855z"/>
		</g>
	</g>
	<g>
		<g>
			<path fill="#3D44AC" d="M265.225,181.646v-36.869h5.196l11.815,18.654c2.736,4.319,4.871,8.204,6.622,11.978l0.108-0.052
				c-0.438-4.926-0.546-9.408-0.546-15.154v-15.426h4.487v36.869h-4.814l-11.708-18.709c-2.568-4.102-5.031-8.313-6.888-12.307
				l-0.169,0.057c0.277,4.646,0.385,9.078,0.385,15.207v15.752H265.225L265.225,181.646z"/>
		</g>
	</g>
	<g>
		<g>
			<path fill="#3D44AC" d="M474.152,181.646v-36.869h5.193l11.813,18.654c2.744,4.319,4.873,8.204,6.625,11.978l0.111-0.052
				c-0.441-4.926-0.551-9.408-0.551-15.154v-15.426h4.484v36.869h-4.811l-11.703-18.709c-2.576-4.102-5.035-8.313-6.896-12.307
				l-0.166,0.057c0.275,4.646,0.383,9.078,0.383,15.207v15.752H474.152L474.152,181.646z"/>
		</g>
	</g>
	<g>
		<g>
			<path fill="#3D44AC" d="M335.097,180.005c-2.135,0.767-6.346,2.026-11.321,2.026c-5.581,0-10.175-1.424-13.789-4.869
				c-3.168-3.064-5.144-7.984-5.144-13.73c0.059-10.996,7.607-19.039,19.975-19.039c4.266,0,7.604,0.933,9.188,1.697l-1.15,3.885
				c-1.967-0.875-4.428-1.588-8.152-1.588c-8.971,0-14.822,5.581-14.822,14.824c0,9.355,5.636,14.883,14.223,14.883
				c3.122,0,5.252-0.439,6.344-0.988v-10.996h-7.494v-3.826h12.146v17.722H335.097z"/>
		</g>
	</g>
	<g>
		<g>
			<path fill="#3D44AC" d="M544.447,180.005c-2.135,0.767-6.346,2.026-11.326,2.026c-5.58,0-10.174-1.424-13.785-4.869
				c-3.166-3.064-5.143-7.984-5.143-13.73c0.059-10.996,7.604-19.039,19.971-19.039c4.264,0,7.598,0.933,9.188,1.697l-1.146,3.885
				c-1.967-0.875-4.436-1.588-8.152-1.588c-8.971,0-14.822,5.581-14.822,14.824c0,9.355,5.635,14.883,14.223,14.883
				c3.117,0,5.252-0.439,6.344-0.988v-10.996H532.3v-3.826h12.146V180.005z"/>
		</g>
	</g>
	<g>
		<g>
			<path fill="#3D44AC" d="M396.503,180.445c-1.75,0.875-5.252,1.75-9.736,1.75c-10.396,0-18.215-6.565-18.215-18.653
				c0-11.544,7.818-19.366,19.258-19.366c4.593,0,7.494,0.983,8.753,1.641l-1.149,3.883c-1.806-0.874-4.377-1.53-7.44-1.53
				c-8.642,0-14.386,5.522-14.386,15.208c0,9.023,5.193,14.823,14.164,14.823c2.901,0,5.856-0.603,7.771-1.53L396.503,180.445z"/>
		</g>
	</g>
</g>
</svg>
